<svg width="9" height="6" viewBox="0 0 9 6" fill="none" xmlns="http://www.w3.org/2000/svg">
<path fill-rule="evenodd" clip-rule="evenodd" d="M0.125 3.00003C0.125 2.91715 0.157924 2.83766 0.216529 2.77906C0.275134 2.72045 0.35462 2.68753 0.4375 2.68753H7.80813L5.84125 0.721279C5.78257 0.662599 5.74961 0.583013 5.74961 0.500029C5.74961 0.417044 5.78257 0.337458 5.84125 0.278778C5.89993 0.220099 5.97952 0.187134 6.0625 0.187134C6.14548 0.187134 6.22507 0.220099 6.28375 0.278778L8.78375 2.77878C8.81285 2.80781 8.83594 2.84229 8.8517 2.88026C8.86745 2.91822 8.87556 2.95892 8.87556 3.00003C8.87556 3.04113 8.86745 3.08183 8.8517 3.1198C8.83594 3.15777 8.81285 3.19225 8.78375 3.22128L6.28375 5.72128C6.22507 5.77996 6.14548 5.81292 6.0625 5.81292C5.97952 5.81292 5.89993 5.77996 5.84125 5.72128C5.78257 5.6626 5.74961 5.58301 5.74961 5.50003C5.74961 5.41704 5.78257 5.33746 5.84125 5.27878L7.80813 3.31253H0.4375C0.35462 3.31253 0.275134 3.2796 0.216529 3.221C0.157924 3.16239 0.125 3.08291 0.125 3.00003Z" fill="white"/>
</svg>
